<?xml version="1.0" standalone="no"?>
<!DOCTYPE svg PUBLIC "-//W3C//DTD SVG 20010904//EN"
 "http://www.w3.org/TR/2001/REC-SVG-20010904/DTD/svg10.dtd">
<svg version="1.0" xmlns="http://www.w3.org/2000/svg"
 width="700.000000pt" height="700.000000pt" viewBox="0 0 700.000000 700.000000"
 preserveAspectRatio="xMidYMid meet">
<metadata>
Created by potrace 1.11, written by Peter Selinger 2001-2013
</metadata>
<g transform="translate(0.000000,700.000000) scale(0.100000,-0.100000)"
fill="#000000" stroke="none">
<path d="M2202 6985 c-113 -35 -201 -149 -207 -268 -3 -63 17 -143 48 -187 10
-14 207 -215 439 -447 l423 -423 -55 -1 c-87 -1 -487 -17 -595 -24 -27 -1
-107 -6 -176 -9 -70 -3 -146 -8 -170 -11 -43 -4 -125 -10 -264 -20 -38 -3 -90
-7 -115 -10 -25 -3 -81 -8 -125 -11 -44 -2 -91 -6 -105 -9 -14 -2 -56 -6 -95
-10 -351 -30 -493 -103 -599 -305 -74 -141 -112 -318 -141 -645 -27 -314 -27
-1851 0 -2320 2 -33 6 -118 10 -190 3 -71 8 -146 9 -165 2 -19 7 -88 11 -152
9 -166 16 -205 53 -298 59 -151 186 -278 337 -335 28 -11 52 -20 55 -20 3 -1
19 -4 35 -8 17 -3 55 -9 85 -12 71 -7 132 -13 195 -20 28 -3 81 -8 119 -11
140 -11 224 -84 262 -228 15 -57 16 -268 2 -348 -5 -29 -25 -100 -43 -156 -19
-57 -37 -122 -40 -144 -9 -59 11 -131 46 -164 27 -26 37 -29 97 -29 98 0 145
15 311 99 318 159 717 452 991 726 l145 145 365 1 c333 1 826 11 975 19 33 2
122 6 197 9 76 4 161 8 190 11 29 2 103 7 163 10 61 4 130 8 155 10 25 2 86 6
135 10 50 3 101 8 115 10 14 2 68 6 120 10 52 4 106 8 120 10 37 5 110 13 235
25 209 21 333 85 465 240 30 35 97 178 104 220 3 19 8 45 10 57 3 13 7 69 11
125 3 57 8 132 10 168 2 36 7 119 10 185 3 66 8 153 10 194 26 462 26 1555 1
2076 -6 122 -17 308 -21 365 -2 30 -6 98 -10 150 -8 129 -13 166 -31 228 -69
246 -274 410 -545 436 -35 4 -84 9 -109 12 -25 2 -67 6 -95 9 -106 9 -182 16
-225 20 -25 2 -81 7 -125 10 -44 3 -100 8 -125 10 -43 3 -140 10 -295 20 -38
3 -117 7 -175 10 -58 3 -145 7 -195 10 -183 9 -421 18 -452 16 -18 -1 -33 1
-33 4 0 4 191 198 424 431 448 448 461 464 475 567 13 95 -18 185 -86 251 -61
59 -115 80 -208 80 -135 0 -117 15 -687 -553 -279 -278 -512 -506 -517 -506
-6 0 -239 228 -519 507 -408 407 -518 512 -556 529 -59 26 -164 33 -224 14z
m2178 -2089 c58 -3 155 -8 215 -11 61 -3 151 -8 200 -10 50 -3 122 -7 160 -10
39 -3 108 -8 155 -10 47 -3 110 -7 140 -10 30 -2 92 -7 138 -10 187 -14 255
-39 316 -120 59 -77 63 -98 81 -455 26 -521 26 -1329 -1 -1970 -10 -242 -16
-274 -66 -348 -60 -87 -142 -126 -288 -137 -47 -3 -101 -8 -120 -10 -19 -2
-78 -6 -130 -10 -52 -4 -115 -8 -140 -10 -52 -4 -208 -13 -365 -21 -60 -3
-141 -7 -180 -9 -433 -24 -1445 -24 -1925 0 -244 12 -332 16 -400 20 -270 17
-326 21 -545 41 -143 12 -162 15 -195 25 -69 23 -132 80 -169 154 -26 52 -29
75 -36 230 -3 72 -7 168 -10 215 -21 414 -21 1339 0 1780 3 52 7 149 10 215 7
188 30 253 109 323 68 59 120 76 266 87 47 3 105 7 130 10 25 2 86 6 135 10
50 3 115 8 145 10 30 2 105 7 165 10 61 3 139 7 175 10 36 2 157 7 270 10 113
4 207 8 209 10 5 6 1431 -3 1551 -9z"/>
</g>
</svg>
